<svg xmlns="http://www.w3.org/2000/svg" viewBox="0 0 128 128"><rect width="128" height="128" rx="28" fill="#fff"/><path fill="#E44D26" d="M25 14h78l-7 88-32 12-32-12z"/><path fill="#F16529" d="M64 23h31l-6 72-25 9z"/><path fill="#EBEBEB" d="M64 54H49l-1-11h16V32H36l3 33h25zM64 82l-13-4-1-10H39l2 20 23 7z"/><path fill="#fff" d="M64 54v11h14l-1 13-13 4v13l23-7 3-34zM64 32v11h28l1-11z"/><text x="64" y="123" text-anchor="middle" font-family="Arial" font-size="13" font-weight="800" fill="#E44D26">HTML</text></svg>