<svg xmlns="http://www.w3.org/2000/svg" viewBox="0 0 128 128"><rect width="128" height="128" rx="28" fill="#fff"/><ellipse cx="64" cy="31" rx="39" ry="13" fill="#00758F"/><path fill="#00758F" d="M25 31v56c0 8 17 14 39 14s39-6 39-14V31c0 8-17 14-39 14s-39-6-39-14z"/><ellipse cx="64" cy="87" rx="39" ry="14" fill="#F29111" opacity=".9"/><path fill="#fff" d="M39 55h7l8 13 8-13h7v31h-8V68l-7 11h-1l-7-11v18h-7zM76 55h8v31h-8z"/><text x="64" y="119" text-anchor="middle" font-family="Arial" font-size="11" font-weight="800" fill="#00758F">MYSQL</text></svg>