<svg xmlns="http://www.w3.org/2000/svg" viewBox="0 0 128 128"><rect width="128" height="128" rx="28" fill="#fff"/><path fill="#3776AB" d="M64 16c-20 0-28 6-28 18v13h32v7H25c-12 0-21 8-21 24s9 24 21 24h11V87c0-13 9-24 23-24h26c11 0 19-9 19-20V34c0-12-10-18-40-18z"/><path fill="#FFD43B" d="M64 112c20 0 28-6 28-18V81H60v-7h43c12 0 21-8 21-24s-9-24-21-24H92v15c0 13-9 24-23 24H43c-11 0-19 9-19 20v9c0 12 10 18 40 18z"/><circle cx="48" cy="34" r="4" fill="#fff"/><circle cx="80" cy="94" r="4" fill="#fff"/></svg>