<svg xmlns="http://www.w3.org/2000/svg" viewBox="0 0 128 128"><rect width="128" height="128" rx="28" fill="#fff"/><path fill="#38BDF8" d="M64 36c-14 0-23 7-28 21 5-7 11-10 19-8 5 1 9 5 14 9 8 7 18 14 34 5 14-8 20-20 20-20-8 8-16 11-24 9-6-1-10-5-15-9-5-4-11-7-20-7zM36 72c-14 0-23 7-28 21 5-7 11-10 19-8 5 1 9 5 14 9 8 7 18 14 34 5 14-8 20-20 20-20-8 8-16 11-24 9-6-1-10-5-15-9-5-4-11-7-20-7z"/><text x="64" y="119" text-anchor="middle" font-family="Arial" font-size="10" font-weight="800" fill="#0891B2">TAILWIND</text></svg>